<?xml version="1.0" encoding="utf-8"?>
<!-- Generator: Adobe Illustrator 16.0.0, SVG Export Plug-In . SVG Version: 6.00 Build 0)  -->
<!DOCTYPE svg PUBLIC "-//W3C//DTD SVG 1.1//EN" "http://www.w3.org/Graphics/SVG/1.1/DTD/svg11.dtd">
<svg version="1.1" id="圖層_1" xmlns="http://www.w3.org/2000/svg" xmlns:xlink="http://www.w3.org/1999/xlink" x="0px" y="0px"
	 width="190.334px" height="170px" viewBox="0 0 190.334 170" enable-background="new 0 0 190.334 170" xml:space="preserve">
<g>
	<g>
		<g>
			
				<rect x="42.835" y="85.03" fill="#FFFFFF" stroke="#FFFFFF" stroke-width="0.5" stroke-miterlimit="10" width="32.145" height="1.832"/>
		</g>
		<path fill="#FFFFFF" stroke="#FFFFFF" stroke-width="0.5" stroke-miterlimit="10" d="M56.293,34.989
			c-14.107,0-25.586,11.479-25.586,25.586v74.437h1.833V60.575c0-13.098,10.655-23.752,23.753-23.752h18.687v-1.834H56.293z"/>
		<g>
			<g>
				
					<rect x="91.026" y="59.878" fill="#FFFFFF" stroke="#FFFFFF" stroke-width="0.5" stroke-miterlimit="10" width="1.833" height="51.166"/>
			</g>
			<g>
				<path fill="#FFFFFF" stroke="#FFFFFF" stroke-width="0.5" stroke-miterlimit="10" d="M134.688,110.4
					c-13.749,0-24.935-11.191-24.935-24.941c0-13.751,11.186-24.937,24.935-24.937c13.753,0,24.939,11.186,24.939,24.937
					C159.628,99.209,148.441,110.4,134.688,110.4z M134.688,62.354c-12.739,0-23.101,10.363-23.101,23.104
					s10.362,23.103,23.101,23.103c12.74,0,23.107-10.361,23.107-23.103S147.429,62.354,134.688,62.354z"/>
			</g>
		</g>
	</g>
</g>
</svg>
